<svg xmlns="http://www.w3.org/2000/svg" viewBox="0 0 80 80" width="512" height="512" aria-label="Banyan Consulting mark">
  <defs>
    <radialGradient id="canopy" cx="50%" cy="40%" r="65%">
      <stop offset="0%" stop-color="#5BD896"></stop>
      <stop offset="55%" stop-color="#1AAE6B"></stop>
      <stop offset="100%" stop-color="#0A5C3A"></stop>
    </radialGradient>
    <linearGradient id="trunk" x1="0" x2="1" y1="0" y2="0">
      <stop offset="0%" stop-color="#3B2A1A"></stop>
      <stop offset="50%" stop-color="#6B4A2E"></stop>
      <stop offset="100%" stop-color="#2A1D10"></stop>
    </linearGradient>
    <radialGradient id="shadow" cx="50%" cy="50%" r="50%">
      <stop offset="0%" stop-color="#000" stop-opacity="0.45"></stop>
      <stop offset="100%" stop-color="#000" stop-opacity="0"></stop>
    </radialGradient>
  </defs>

  
  <ellipse cx="40" cy="72" rx="26" ry="3.5" fill="url(#shadow)"></ellipse>

  
  <path d="M22 48 C 20 55, 19 62, 18 70 L 21 70 C 22 62, 23 55, 25 48 Z" fill="url(#trunk)"></path>
  <path d="M30 46 C 29 54, 28.5 62, 28 70 L 32 70 C 32 62, 32 54, 33 46 Z" fill="url(#trunk)"></path>
  <path d="M36 42 C 35 50, 35 60, 34 70 L 46 70 C 45 60, 45 50, 44 42 Z" fill="url(#trunk)"></path>
  <path d="M47 46 C 47.5 54, 48 62, 48 70 L 52 70 C 51.5 62, 51 54, 50 46 Z" fill="url(#trunk)"></path>
  <path d="M55 48 C 57 55, 58 62, 59 70 L 62 70 C 61 62, 60 55, 58 48 Z" fill="url(#trunk)"></path>

  
  <path d="M40 44 L 39.5 68" stroke="#1A0F06" stroke-width="0.8" opacity="0.5"></path>
  <path d="M41 44 L 41.5 68" stroke="#8C6440" stroke-width="0.6" opacity="0.6"></path>
  <path d="M23.5 50 L 22.5 68" stroke="#1A0F06" stroke-width="0.5" opacity="0.4"></path>
  <path d="M30.5 48 L 30 68" stroke="#1A0F06" stroke-width="0.5" opacity="0.4"></path>
  <path d="M49.5 48 L 50 68" stroke="#1A0F06" stroke-width="0.5" opacity="0.4"></path>
  <path d="M56.5 50 L 57.5 68" stroke="#1A0F06" stroke-width="0.5" opacity="0.4"></path>

  
  <path d="M16 30 Q 17 40, 21 48" stroke="#3B2A1A" stroke-width="0.9" fill="none" stroke-linecap="round" opacity="0.7"></path>
  <path d="M20 26 Q 22 36, 24 46" stroke="#3B2A1A" stroke-width="0.7" fill="none" stroke-linecap="round" opacity="0.5"></path>
  <path d="M64 30 Q 63 40, 59 48" stroke="#3B2A1A" stroke-width="0.9" fill="none" stroke-linecap="round" opacity="0.7"></path>
  <path d="M60 26 Q 58 36, 56 46" stroke="#3B2A1A" stroke-width="0.7" fill="none" stroke-linecap="round" opacity="0.5"></path>

  
  <ellipse cx="40" cy="28" rx="32" ry="20" fill="url(#canopy)"></ellipse>
  <circle cx="20" cy="26" r="11" fill="#1AAE6B"></circle>
  <circle cx="30" cy="18" r="13" fill="#22C77B"></circle>
  <circle cx="42" cy="14" r="14" fill="#2DD487"></circle>
  <circle cx="54" cy="18" r="13" fill="#22C77B"></circle>
  <circle cx="62" cy="26" r="11" fill="#1AAE6B"></circle>
  <circle cx="14" cy="32" r="9" fill="#0F8A55"></circle>
  <circle cx="68" cy="32" r="9" fill="#0F8A55"></circle>
  <circle cx="38" cy="36" r="11" fill="#0E7A4B"></circle>
  <circle cx="32" cy="14" r="7" fill="#7DE3AB" opacity="0.85"></circle>
  <circle cx="44" cy="10" r="6" fill="#9BEEC0" opacity="0.9"></circle>
  <circle cx="52" cy="14" r="6" fill="#7DE3AB" opacity="0.85"></circle>
  <circle cx="24" cy="20" r="5" fill="#5BD896" opacity="0.7"></circle>
  <circle cx="60" cy="20" r="5" fill="#5BD896" opacity="0.7"></circle>
  <circle cx="26" cy="36" r="6" fill="#0A5C3A" opacity="0.55"></circle>
  <circle cx="40" cy="40" r="7" fill="#083D27" opacity="0.55"></circle>
  <circle cx="54" cy="36" r="6" fill="#0A5C3A" opacity="0.55"></circle>
  <circle cx="18" cy="24" r="1.3" fill="#9BEEC0"></circle>
  <circle cx="36" cy="20" r="1.1" fill="#9BEEC0"></circle>
  <circle cx="48" cy="22" r="1.2" fill="#9BEEC0"></circle>
  <circle cx="58" cy="24" r="1.3" fill="#9BEEC0"></circle>
  <circle cx="22" cy="32" r="1.0" fill="#5BD896"></circle>
  <circle cx="64" cy="32" r="1.0" fill="#5BD896"></circle>
  <circle cx="40" cy="26" r="1.4" fill="#7DE3AB"></circle>

  
  <line x1="10" y1="70" x2="70" y2="70" stroke="#5C4A36" stroke-width="0.8" opacity="0.55"></line>
</svg>